<svg xmlns="http://www.w3.org/2000/svg" viewBox="0 0 400 300" width="400" height="300">
  <rect width="400" height="300" fill="#f8fafc" rx="14" ry="14"/>
  <g fill="none" stroke="#ec4899" stroke-width="2.5" stroke-linejoin="round" transform="translate(200,110)">
    <path d="M-52-18h68a8 8 0 018 8v22a8 8 0 01-8 8h-38l-12 14-4-14h-14a8 8 0 01-8-8v-22a8 8 0 018-8z"/>
    <path d="M-28 8h72a8 8 0 018 8v18a8 8 0 01-8 8h-22l-10 12-3-12h-37a8 8 0 01-8-8v-18a8 8 0 018-8z"/>
  </g>
  <text x="200" y="218" text-anchor="middle" font-family="system-ui,-apple-system,sans-serif" font-size="15" font-weight="600" fill="#64748b">Communication</text>
</svg>
